<svg width="265" height="314" viewBox="0 0 265 314" fill="none" xmlns="http://www.w3.org/2000/svg">
<circle cx="247.5" cy="252.5" r="17.5" fill="#1B1B1D"/>
<path d="M94 193L26.1988 299.216" stroke="#00A6A6" stroke-width="28" stroke-linecap="round"/>
<path d="M147 140.5C147 152.926 136.926 163 124.5 163C112.074 163 102 152.926 102 140.5C102 128.074 112.074 118 124.5 118C136.926 118 147 128.074 147 140.5Z" fill="#1B1B1D"/>
<circle cx="17.5" cy="69.5" r="17.5" fill="#1B1B1D"/>
<path fill-rule="evenodd" clip-rule="evenodd" d="M27.117 45.7145C35.6371 20.9179 50.1176 10.7935 62.6786 11.5407C77.74 12.4367 96.0663 29.0244 105.067 68.4985C107.141 77.5946 109.133 86.4541 111.068 95.0992C114.523 94.0283 118.149 93.3453 121.894 93.101C119.931 84.3312 117.906 75.3239 115.792 66.0531C106.521 25.3958 86.156 1.91785 63.3318 0.560113C43.0425 -0.646835 25.3642 15.7009 16.0956 44.0715C16.7242 44.0241 17.3593 44 18 44C21.2171 44 24.2923 44.6077 27.117 45.7145ZM142.738 183.538C139.379 184.908 135.826 185.9 132.132 186.462C139.379 215.347 147.139 242.24 156.86 268.511C167.937 298.449 186.967 314.931 207.433 313.405C223.949 312.174 238.479 299.385 247.786 277.999C243.884 277.966 240.196 277.04 236.916 275.415C228.673 293.302 217.126 301.652 206.615 302.436C193.495 303.414 177.594 292.851 167.176 264.694C157.576 238.747 149.923 212.208 142.738 183.538Z" fill="#1B1B1D"/>
<path fill-rule="evenodd" clip-rule="evenodd" d="M125 200C158.137 200 185 173.137 185 140C185 106.863 158.137 80 125 80C91.8629 80 65 106.863 65 140C65 173.137 91.8629 200 125 200ZM125 187C150.957 187 172 165.957 172 140C172 114.043 150.957 93 125 93C99.0426 93 78 114.043 78 140C78 165.957 99.0426 187 125 187Z" fill="#00A6A6"/>
</svg>
